<svg xmlns="http://www.w3.org/2000/svg" width="128" height="128" viewBox="0 0 128 128">
    <g fill="none" fill-rule="nonzero">
        <path fill="#263373" d="M100.998.081h-74.88A26.067 26.067 0 0 0 .071 26.18v74.88a25.986 25.986 0 0 0 26.047 26.006h74.88a25.997 25.997 0 0 0 26.057-26.006v-74.88A26.078 26.078 0 0 0 100.998.081z"/>
        <path fill="#FFF" d="M106.992 57.996a5.018 5.018 0 0 0-2.743-4.216L82.916 45.99l-24.717 9-1.158 2.54 22.949 8.36 1.087 14.223-29.46-10.718-4.734 10.464 18.133 6.613c0-3.291 1.96-5.242 4.48-4.551-1.544.488-2.58 2.184-2.57 4.582 0 3.454 2.214 7.04 4.906 8.025 2.52.914 4.562-.772 4.805-3.81l5.374 1.95c.248.103.525.103.772 0l24.453-8.99a1.615 1.615 0 0 0 1.015-1.554v-8.29l-1.26-15.837zM87.507 87.832c-.944.336-1.696-.386-1.696-1.615a3.16 3.16 0 0 1 1.696-2.865c.935-.345 1.697.376 1.697 1.616a3.17 3.17 0 0 1-1.697 2.864zm16.965-6.247c-.944.345-1.696-.376-1.696-1.615a3.15 3.15 0 0 1 1.696-2.865c.935-.335 1.697.386 1.697 1.625a3.15 3.15 0 0 1-1.697 2.855zm-19.139-1.676l-1.016-13.572 20.938-7.7 1.015 13.571-20.937 7.7z"/>
        <path fill="#EF3A5E" d="M21.81 58.545V44.698l35.231 12.83L58.2 54.99l24.737-9-17.747-6.37-19.322-7.111a1.849 1.849 0 0 0-1.29 0l-24.381 8.99c-.773.275-1.23 1.2-1.23 2.55v23.233c0 1.24.529 2.621 1.473 2.967l4.795 1.747c0-3.292 1.971-5.252 4.49-4.561-1.534.487-2.58 2.184-2.56 4.581 0 3.454 2.215 7.05 4.907 8.026 2.469.914 4.5-.803 4.765-3.85l10.047 3.636 4.754-10.453-29.826-10.83z"/>
    </g>
</svg>
