<svg xmlns="http://www.w3.org/2000/svg" width="120" height="40" viewBox="0 0 120 40">
    <g fill="none" fill-rule="nonzero">
        <path fill="#A6A6A6" d="M110.135 0H9.535c-.367 0-.73 0-1.095.002-.306.002-.61.008-.919.013C6.85.023 6.18.082 5.517.19a6.665 6.665 0 0 0-1.9.627A6.438 6.438 0 0 0 .193 5.521a12.993 12.993 0 0 0-.179 2.002c-.01.307-.01.615-.015.921V31.56c.005.31.006.61.015.921.008.671.068 1.34.18 2.002.11.663.32 1.306.624 1.905.303.598.701 1.143 1.179 1.614.473.477 1.02.875 1.618 1.179a6.7 6.7 0 0 0 1.901.63c.663.11 1.333.168 2.004.177.31.007.613.011.919.011.366.002.728.002 1.095.002h100.6c.36 0 .724 0 1.084-.002.304 0 .617-.004.922-.01.67-.01 1.338-.068 2-.178a6.804 6.804 0 0 0 1.908-.63A6.277 6.277 0 0 0 117.666 38a6.395 6.395 0 0 0 1.182-1.614c.302-.6.51-1.242.619-1.905.111-.661.173-1.33.185-2.002.004-.31.004-.61.004-.921.008-.364.008-.725.008-1.094V9.536c0-.366 0-.73-.008-1.092 0-.306 0-.614-.004-.92a13.507 13.507 0 0 0-.185-2.003 6.618 6.618 0 0 0-.62-1.903 6.466 6.466 0 0 0-2.798-2.8 6.768 6.768 0 0 0-1.908-.627c-.661-.11-1.33-.169-2-.176-.305-.005-.618-.011-.922-.013-.36-.002-.725-.002-1.084-.002z"/>
        <path fill="#000" d="M8.445 39.125c-.305 0-.602-.004-.904-.01a12.687 12.687 0 0 1-1.87-.164 5.884 5.884 0 0 1-1.656-.548 5.406 5.406 0 0 1-1.397-1.016 5.32 5.32 0 0 1-1.02-1.397 5.722 5.722 0 0 1-.544-1.657 12.414 12.414 0 0 1-.166-1.875c-.007-.21-.015-.913-.015-.913v-23.1s.009-.692.015-.895a12.37 12.37 0 0 1 .165-1.872 5.755 5.755 0 0 1 .544-1.662c.26-.518.603-.99 1.015-1.398A5.565 5.565 0 0 1 5.667 1.05C6.287.95 6.915.895 7.543.887l.902-.012h102.769l.913.013c.623.007 1.244.061 1.858.162a5.938 5.938 0 0 1 1.671.548 5.594 5.594 0 0 1 2.415 2.42c.26.52.441 1.076.535 1.649.104.624.162 1.255.174 1.887.003.283.003.588.003.89.008.375.008.732.008 1.092v20.929c0 .363 0 .718-.008 1.075 0 .325 0 .623-.004.93-.011.62-.069 1.24-.17 1.853a5.739 5.739 0 0 1-.54 1.67 5.48 5.48 0 0 1-1.016 1.386 5.413 5.413 0 0 1-1.4 1.022 5.862 5.862 0 0 1-1.668.55c-.618.101-1.243.156-1.869.163-.293.007-.6.011-.897.011l-1.084.002-101.69-.002z"/>
        <g fill="#FFF">
            <path d="M24.769 20.3a4.949 4.949 0 0 1 2.356-4.151 5.066 5.066 0 0 0-3.99-2.158c-1.68-.176-3.308 1.005-4.164 1.005-.872 0-2.19-.988-3.608-.958a5.315 5.315 0 0 0-4.473 2.728c-1.934 3.348-.491 8.269 1.361 10.976.927 1.325 2.01 2.805 3.428 2.753 1.387-.058 1.905-.885 3.58-.885 1.658 0 2.144.885 3.59.852 1.489-.025 2.426-1.332 3.32-2.67a10.962 10.962 0 0 0 1.52-3.092 4.782 4.782 0 0 1-2.92-4.4zM22.037 12.21a4.872 4.872 0 0 0 1.115-3.49 4.957 4.957 0 0 0-3.208 1.66A4.636 4.636 0 0 0 18.8 13.74a4.1 4.1 0 0 0 3.237-1.53z"/>
            <g>
                <path d="M42.302 27.14H37.57l-1.137 3.356h-2.005l4.484-12.418h2.083l4.483 12.418h-2.039l-1.136-3.356zm-4.243-1.55h3.752l-1.85-5.446h-.051l-1.85 5.447zM55.16 25.97c0 2.813-1.506 4.62-3.779 4.62a3.07 3.07 0 0 1-2.848-1.583h-.043v4.484H46.63V21.442h1.8v1.506h.033a3.212 3.212 0 0 1 2.883-1.6c2.298 0 3.813 1.816 3.813 4.622zm-1.91 0c0-1.833-.948-3.038-2.393-3.038-1.42 0-2.375 1.23-2.375 3.038 0 1.824.955 3.046 2.375 3.046 1.445 0 2.393-1.197 2.393-3.046zM65.125 25.97c0 2.813-1.506 4.62-3.779 4.62a3.07 3.07 0 0 1-2.848-1.583h-.043v4.484h-1.859V21.442h1.799v1.506h.034a3.212 3.212 0 0 1 2.883-1.6c2.298 0 3.813 1.816 3.813 4.622zm-1.91 0c0-1.833-.948-3.038-2.393-3.038-1.42 0-2.375 1.23-2.375 3.038 0 1.824.955 3.046 2.375 3.046 1.445 0 2.392-1.197 2.392-3.046zM71.71 27.036c.138 1.232 1.334 2.04 2.97 2.04 1.566 0 2.693-.808 2.693-1.919 0-.964-.68-1.54-2.29-1.936l-1.609-.388c-2.28-.55-3.339-1.617-3.339-3.348 0-2.142 1.867-3.614 4.519-3.614 2.624 0 4.423 1.472 4.483 3.614h-1.876c-.112-1.239-1.136-1.987-2.634-1.987-1.497 0-2.521.757-2.521 1.858 0 .878.654 1.395 2.255 1.79l1.368.336c2.548.603 3.606 1.626 3.606 3.443 0 2.323-1.85 3.778-4.793 3.778-2.754 0-4.614-1.42-4.734-3.667h1.902zM83.346 19.3v2.142h1.722v1.472h-1.722v4.991c0 .776.345 1.137 1.102 1.137.204-.004.408-.018.611-.043v1.463c-.34.063-.686.092-1.032.086-1.833 0-2.548-.689-2.548-2.445v-5.189h-1.316v-1.472h1.316V19.3h1.867zM86.065 25.97c0-2.849 1.678-4.639 4.294-4.639 2.625 0 4.295 1.79 4.295 4.639 0 2.856-1.661 4.638-4.295 4.638-2.633 0-4.294-1.782-4.294-4.638zm6.695 0c0-1.954-.895-3.108-2.401-3.108-1.506 0-2.4 1.162-2.4 3.108 0 1.962.894 3.106 2.4 3.106 1.506 0 2.401-1.144 2.401-3.106zM96.186 21.442h1.773v1.541h.043a2.16 2.16 0 0 1 2.177-1.635c.214-.001.428.022.637.069v1.738a2.598 2.598 0 0 0-.835-.112 1.873 1.873 0 0 0-1.937 2.083v5.37h-1.858v-9.054zM109.384 27.837c-.25 1.643-1.85 2.771-3.898 2.771-2.634 0-4.269-1.764-4.269-4.595 0-2.84 1.644-4.682 4.19-4.682 2.506 0 4.08 1.72 4.08 4.466v.637h-6.394v.112a2.358 2.358 0 0 0 2.436 2.564 2.048 2.048 0 0 0 2.09-1.273h1.765zm-6.282-2.702h4.526a2.177 2.177 0 0 0-2.22-2.298 2.292 2.292 0 0 0-2.306 2.298z"/>
            </g>
        </g>
        <g fill="#FFF">
            <path d="M38.826 14.59v-2.845a1.31 1.31 0 0 0-.3-.89 1.095 1.095 0 0 0-.877-.347 1.267 1.267 0 0 0-1.058.474 2.047 2.047 0 0 0-.373 1.296c-.007.26.028.518.102.766.055.182.144.352.262.5.096.118.22.211.36.27.125.053.259.08.394.081.105 0 .21-.006.313-.021.1-.015.197-.045.288-.089l.17.686c-.117.06-.24.104-.369.131a2.174 2.174 0 0 1-.47.046c-.252 0-.502-.046-.737-.14a1.721 1.721 0 0 1-.63-.43 2.093 2.093 0 0 1-.436-.742 3.134 3.134 0 0 1-.161-1.058 3.24 3.24 0 0 1 .148-.995c.091-.294.241-.566.44-.8.2-.23.45-.412.728-.533.317-.135.66-.202 1.004-.195a2.51 2.51 0 0 1 .923.157c.249.094.475.24.664.427.177.18.313.397.398.635.089.25.133.514.131.779v2.836h-.914zM42.991 14.59v-3.048c0-.689-.296-1.033-.888-1.034-.257 0-.512.049-.75.144a2.984 2.984 0 0 0-.631.34l-.237-.67c.232-.165.485-.297.753-.393a2.65 2.65 0 0 1 .949-.174c.477-.034.946.142 1.283.483.308.375.464.852.435 1.337v3.014h-.914zM45.1 13.514c.202.12.416.22.638.297.233.08.478.12.724.118.374.02.736-.137.978-.423.26-.37.384-.819.351-1.27a2.016 2.016 0 0 0-.35-1.313 1.214 1.214 0 0 0-.98-.415 2.09 2.09 0 0 0-.727.119 3.167 3.167 0 0 0-.643.33l-.212-.703a3.42 3.42 0 0 1 .78-.36c.286-.092.586-.14.888-.14a2.02 2.02 0 0 1 1.6.636c.4.506.6 1.142.56 1.786a2.697 2.697 0 0 1-.577 1.876 2.09 2.09 0 0 1-1.625.63 2.774 2.774 0 0 1-1.617-.44l.212-.728zM50.72 12.913c-.025.278.054.556.221.779.18.17.423.257.67.237.27-.002.532-.09.748-.25a1.55 1.55 0 0 0 .52-.614V9.848h.915v4.741h-.83l-.084-.634c-.16.208-.36.383-.589.512a1.757 1.757 0 0 1-.901.216 1.537 1.537 0 0 1-1.177-.433 1.856 1.856 0 0 1-.406-1.312v-3.09h.914v3.065zM53.565 8.663a.339.339 0 0 0-.224.067.285.285 0 0 0-.08.229v.263h-.94v-.39a.869.869 0 0 1 .262-.673 1.1 1.1 0 0 1 .77-.242h.958v.746h-.746zM55.53 14.59V9.45a1.75 1.75 0 0 0-.36-1.096 1.578 1.578 0 0 0-.306-.305 1.24 1.24 0 0 0-.266-.157l-.017-.22c.192-.321.475-.579.813-.74.387-.19.814-.284 1.245-.276.29-.005.579.02.863.076.21.047.417.109.618.186l-.143.763a2.357 2.357 0 0 0-.619-.216 3.395 3.395 0 0 0-.66-.064 2.083 2.083 0 0 0-.703.106c-.17.053-.324.148-.45.275.286.16.518.4.67.69.164.324.246.683.237 1.046v5.071h-.923zM61.134 14.59l-.643-2.084c-.153-.48-.421-.725-.804-.736l-.94.796v2.023h-.915V9.85h.915v1.735l2.082-1.736h1.186l-1.694 1.397c.264.045.505.18.682.381.17.21.299.452.377.711l.71 2.252h-.956zM65.868 14.59v-2.176h-1.11a1.705 1.705 0 0 0-.85.182.649.649 0 0 0-.318.613.672.672 0 0 0 .224.55.826.826 0 0 0 .546.187 1.873 1.873 0 0 0 .695-.144l.144.703a2.408 2.408 0 0 1-.932.169 2.08 2.08 0 0 1-.619-.09 1.372 1.372 0 0 1-.499-.27 1.275 1.275 0 0 1-.335-.457 1.568 1.568 0 0 1-.122-.64c0-1.027.717-1.54 2.15-1.54h1.026v-.136a1.146 1.146 0 0 0-.246-.77 1.038 1.038 0 0 0-.83-.288 2.552 2.552 0 0 0-.91.152c-.255.095-.498.22-.724.373l-.297-.635c.116-.082.236-.157.36-.225.148-.08.302-.146.462-.198a4.24 4.24 0 0 1 .546-.14c.202-.037.408-.056.614-.055a1.98 1.98 0 0 1 1.427.483c.344.34.527.811.504 1.295v3.056h-.906zM71.396 14.59v-2.845a1.31 1.31 0 0 0-.3-.89 1.095 1.095 0 0 0-.877-.347 1.267 1.267 0 0 0-1.058.474 2.047 2.047 0 0 0-.373 1.296c-.007.26.028.518.102.766.055.182.143.352.262.5.096.118.22.211.36.27.125.053.259.08.394.081.105 0 .21-.006.313-.021.1-.015.197-.045.287-.089l.17.686c-.116.06-.24.104-.368.131a2.174 2.174 0 0 1-.47.046c-.252 0-.502-.046-.737-.14a1.721 1.721 0 0 1-.63-.43 2.093 2.093 0 0 1-.436-.742 3.134 3.134 0 0 1-.161-1.058 3.24 3.24 0 0 1 .148-.995c.091-.294.24-.566.44-.8.2-.23.449-.412.728-.533.317-.135.66-.202 1.004-.195a2.51 2.51 0 0 1 .923.157c.249.094.475.24.664.427.177.18.313.397.398.635.089.25.133.514.131.779v2.836h-.914zM73.868 14.59V9.06c-.008-.315.054-.629.181-.918.116-.25.3-.462.53-.614h-1.863v-.737h2.905v.652a1.287 1.287 0 0 0-.623.568 1.932 1.932 0 0 0-.207.931v5.647h-.923zM79.464 14.59v-2.845a1.31 1.31 0 0 0-.3-.89 1.095 1.095 0 0 0-.876-.347 1.267 1.267 0 0 0-1.059.474 2.047 2.047 0 0 0-.373 1.296c-.006.26.028.518.103.766.054.182.143.352.261.5.096.118.22.211.36.27.125.053.259.08.394.081.105 0 .21-.006.314-.021.1-.015.196-.045.287-.089l.17.686c-.117.06-.24.104-.368.131a2.174 2.174 0 0 1-.47.046c-.253 0-.503-.046-.738-.14a1.721 1.721 0 0 1-.63-.43 2.093 2.093 0 0 1-.436-.742 3.134 3.134 0 0 1-.161-1.058 3.24 3.24 0 0 1 .148-.995c.091-.294.241-.566.44-.8.2-.23.45-.412.728-.533.317-.135.66-.202 1.004-.195a2.51 2.51 0 0 1 .923.157c.25.094.475.24.664.427.178.18.314.397.399.635.088.25.132.514.13.779v2.836h-.914zM79.584 8.375a.12.12 0 0 0 .135.135h1.134v.712h-1.592a.444.444 0 0 1-.283-.098.349.349 0 0 1-.123-.292v-.228a.18.18 0 0 0-.025-.11.135.135 0 0 0-.11-.035h-.474v-.736h.804a.625.625 0 0 1 .389.11c.1.083.155.21.145.339v.203zM84.95 11.541a1.295 1.295 0 0 0-.19-.783.645.645 0 0 0-.546-.25c-.3 0-.595.083-.85.242a2.177 2.177 0 0 0-.648.597v3.242h-.915V9.85h.83l.085.643a2.952 2.952 0 0 1 .693-.504c.141-.072.289-.13.441-.17.166-.043.337-.064.508-.063.422-.022.832.151 1.11.47.283.369.425.827.398 1.291v3.073h-.915v-3.047zM82.25 9.222V8.51h2.905v-.787h.829v1.499zM85.282 7.291V6.03h.829V7.29z"/>
        </g>
    </g>
</svg>
