<svg xmlns="http://www.w3.org/2000/svg" width="120" height="36" viewBox="0 0 120 36">
    <defs>
        <linearGradient id="a" x1="60.865%" x2="27.097%" y1="4.839%" y2="71.968%">
            <stop offset="0%" stop-color="#00A0FF"/>
            <stop offset=".657%" stop-color="#00A1FF"/>
            <stop offset="26.01%" stop-color="#00BEFF"/>
            <stop offset="51.22%" stop-color="#00D2FF"/>
            <stop offset="76.04%" stop-color="#00DFFF"/>
            <stop offset="100%" stop-color="#00E3FF"/>
        </linearGradient>
        <linearGradient id="b" x1="107.728%" x2="-130.665%" y1="49.428%" y2="49.428%">
            <stop offset="0%" stop-color="#FFE000"/>
            <stop offset="40.87%" stop-color="#FFBD00"/>
            <stop offset="77.54%" stop-color="#FFA500"/>
            <stop offset="100%" stop-color="#FF9C00"/>
        </linearGradient>
        <linearGradient id="c" x1="86.389%" x2="-49.888%" y1="30.183%" y2="138.907%">
            <stop offset="0%" stop-color="#FF3A44"/>
            <stop offset="100%" stop-color="#C31162"/>
        </linearGradient>
        <linearGradient id="d" x1="-18.579%" x2="42.275%" y1="-13.764%" y2="34.56%">
            <stop offset="0%" stop-color="#32A071"/>
            <stop offset="6.85%" stop-color="#2DA771"/>
            <stop offset="47.62%" stop-color="#15CF74"/>
            <stop offset="80.09%" stop-color="#06E775"/>
            <stop offset="100%" stop-color="#00F076"/>
        </linearGradient>
    </defs>
    <g fill="none" fill-rule="nonzero">
        <path fill="#000" d="M115.556 36H4.444C1.956 36 0 34.02 0 31.5v-27C0 1.98 1.956 0 4.444 0h111.112C118.044 0 120 1.98 120 4.5v27c0 2.43-1.956 4.5-4.444 4.5z"/>
        <path fill="#A6A6A6" d="M115.556.72c2.044 0 3.733 1.71 3.733 3.78v27c0 2.07-1.689 3.78-3.733 3.78H4.444C2.4 35.28.711 33.57.711 31.5v-27C.711 2.43 2.4.72 4.444.72h111.112m0-.72H4.444C1.956 0 0 1.98 0 4.5v27C0 34.02 1.956 36 4.444 36h111.112c2.488 0 4.444-1.98 4.444-4.5v-27c0-2.43-1.956-4.5-4.444-4.5z"/>
        <g fill="#FFF" stroke="#FFF" stroke-width=".2">
            <path d="M42.305 8.923c0 .72-.178 1.35-.623 1.8-.534.54-1.157.81-1.957.81-.801 0-1.424-.27-1.958-.81s-.8-1.17-.8-1.98.266-1.44.8-1.98 1.157-.81 1.958-.81c.356 0 .711.09 1.067.27.356.18.623.36.801.63l-.445.45c-.356-.45-.8-.63-1.423-.63-.534 0-1.068.18-1.424.63-.445.36-.623.9-.623 1.53s.178 1.17.623 1.53c.445.36.89.63 1.424.63.622 0 1.067-.18 1.512-.63.267-.27.445-.63.445-1.08h-1.957v-.63h2.58v.27zM46.398 6.673h-2.402v1.71h2.224v.63h-2.224v1.71h2.402v.72h-3.114v-5.4h3.114zM49.335 11.443h-.712v-4.77H47.11v-.63h3.737v.63h-1.512zM53.428 11.443v-5.4h.712v5.4zM57.165 11.443h-.712v-4.77h-1.512v-.63h3.648v.63h-1.513v4.77zM65.619 10.723c-.534.54-1.157.81-1.958.81-.8 0-1.424-.27-1.958-.81s-.8-1.17-.8-1.98.266-1.44.8-1.98 1.157-.81 1.958-.81c.8 0 1.424.27 1.958.81s.8 1.17.8 1.98-.266 1.44-.8 1.98zm-3.382-.45c.356.36.89.63 1.424.63.534 0 1.068-.18 1.424-.63.356-.36.623-.9.623-1.53s-.178-1.17-.623-1.53c-.356-.36-.89-.63-1.424-.63-.534 0-1.068.18-1.424.63-.356.36-.623.9-.623 1.53s.178 1.17.623 1.53zM67.398 11.443v-5.4h.801l2.58 4.23v-4.23h.713v5.4h-.712l-2.759-4.41v4.41z"/>
        </g>
        <path fill="#FFF" d="M60.627 19.72c-2.134 0-3.824 1.643-3.824 3.925 0 2.191 1.69 3.926 3.824 3.926 2.135 0 3.825-1.644 3.825-3.926 0-2.374-1.69-3.926-3.825-3.926zm0 6.207c-1.156 0-2.134-1.004-2.134-2.373 0-1.37.978-2.374 2.134-2.374 1.157 0 2.135.913 2.135 2.374 0 1.37-.978 2.373-2.135 2.373zm-8.272-6.208c-2.135 0-3.825 1.644-3.825 3.926 0 2.191 1.69 3.926 3.825 3.926 2.135 0 3.825-1.644 3.825-3.926 0-2.374-1.69-3.926-3.825-3.926zm0 6.208c-1.157 0-2.135-1.004-2.135-2.373 0-1.37.978-2.374 2.135-2.374 1.156 0 2.135.913 2.135 2.374 0 1.37-.979 2.373-2.135 2.373zm-9.874-5.02v1.642h3.825c-.089.913-.445 1.644-.89 2.1-.533.548-1.423 1.187-2.935 1.187-2.402 0-4.18-1.917-4.18-4.382s1.867-4.382 4.18-4.382c1.245 0 2.224.548 2.936 1.187l1.156-1.187c-.979-.913-2.224-1.643-4.003-1.643-3.202 0-5.96 2.738-5.96 6.025 0 3.286 2.758 6.025 5.96 6.025 1.78 0 3.024-.547 4.092-1.734 1.067-1.096 1.423-2.648 1.423-3.835 0-.365 0-.73-.089-1.004h-5.515zm40.385 1.277c-.356-.913-1.246-2.465-3.203-2.465-1.957 0-3.558 1.552-3.558 3.926 0 2.191 1.601 3.926 3.736 3.926 1.69 0 2.758-1.096 3.114-1.735l-1.246-.913c-.444.64-.978 1.096-1.868 1.096-.89 0-1.423-.366-1.868-1.187l5.07-2.191-.177-.457zm-5.16 1.278c0-1.46 1.157-2.282 1.957-2.282.623 0 1.246.365 1.424.822l-3.38 1.46zm-4.18 3.743h1.69V15.794h-1.69v11.411zm-2.669-6.664c-.445-.456-1.156-.913-2.046-.913-1.868 0-3.647 1.735-3.647 3.926 0 2.19 1.69 3.834 3.647 3.834.89 0 1.601-.456 1.957-.913h.09v.548c0 1.46-.802 2.282-2.047 2.282-.978 0-1.69-.73-1.868-1.37l-1.423.64c.445 1.004 1.512 2.282 3.38 2.282 1.957 0 3.558-1.187 3.558-4.017v-6.938h-1.6v.639zM68.9 25.927c-1.156 0-2.135-1.004-2.135-2.373 0-1.37.979-2.374 2.135-2.374 1.156 0 2.046 1.004 2.046 2.374s-.89 2.373-2.046 2.373zm21.705-10.133h-4.003v11.411h1.69v-4.29h2.313c1.868 0 3.647-1.37 3.647-3.56 0-2.192-1.78-3.561-3.647-3.561zm.089 5.477h-2.402v-3.925h2.402c1.245 0 1.957 1.095 1.957 1.917-.09 1.004-.801 2.008-1.957 2.008zm10.23-1.643c-1.246 0-2.491.548-2.936 1.735l1.512.639c.356-.64.89-.822 1.512-.822.89 0 1.69.548 1.78 1.46v.092c-.268-.183-.98-.456-1.69-.456-1.602 0-3.203.913-3.203 2.556 0 1.552 1.334 2.556 2.757 2.556 1.157 0 1.69-.548 2.135-1.096h.09v.913h1.6v-4.382c-.178-2.008-1.69-3.195-3.558-3.195zm-.179 6.3c-.533 0-1.334-.275-1.334-1.005 0-.913.978-1.187 1.779-1.187.712 0 1.067.183 1.512.365-.178 1.096-1.067 1.826-1.957 1.826zm9.34-6.026l-1.868 4.93h-.089l-1.957-4.93h-1.779l2.936 6.938-1.69 3.835h1.69l4.536-10.773h-1.779zm-14.944 7.303h1.69V15.794h-1.69v11.411z"/>
        <path fill="url(#a)" d="M1.253.455C.984.728.805 1.183.805 1.729v20.108c0 .546.18 1.001.448 1.274l.09.091L12.438 11.92v-.182L1.253.455z" transform="translate(8.136 6.171)"/>
        <path fill="url(#b)" d="M16.108 15.741l-3.669-3.73v-.273l3.67-3.731.089.091 4.385 2.548c1.253.728 1.253 1.91 0 2.638l-4.475 2.457z" transform="translate(8.136 6.171)"/>
        <path fill="url(#c)" d="M16.198 15.65l-3.759-3.821L1.253 23.202c.447.455 1.074.455 1.88.091l13.065-7.643" transform="translate(8.136 6.171)"/>
        <path fill="url(#d)" d="M16.198 8.007L3.132.455C2.327 0 1.7.09 1.252.545L12.44 11.83l3.759-3.822z" transform="translate(8.136 6.171)"/>
        <g fill="#000">
            <path d="M24.244 21.73l-12.976 7.462c-.716.455-1.343.364-1.79 0l-.09.09.09.092c.447.364 1.074.455 1.79 0l12.976-7.643z" opacity=".2"/>
            <path d="M9.388 29.192c-.268-.273-.357-.728-.357-1.274v.09c0 .547.178 1.002.447 1.275v-.091h-.09z" opacity=".12"/>
        </g>
        <path fill="#000" d="M28.719 19.183l-4.475 2.548.09.09 4.385-2.547c.626-.364.895-.82.895-1.274 0 .455-.358.819-.895 1.183z" opacity=".12"/>
        <path fill="#FFF" d="M11.268 6.717l17.45 10.1c.538.364.896.728.896 1.183 0-.455-.269-.91-.895-1.274l-17.451-10.1c-1.253-.728-2.237-.09-2.237 1.365v.091c0-1.456.984-2.093 2.237-1.365z" opacity=".25"/>
    </g>
</svg>
